<?xml version="1.0" encoding="utf-8"?>
<svg viewBox="0 0 195 75" xmlns="http://www.w3.org/2000/svg" xmlns:xlink="http://www.w3.org/1999/xlink" xmlns:bx="https://boxy-svg.com">
  <defs>
    <radialGradient id="gradient-3-1" gradientUnits="userSpaceOnUse" cx="227.422" cy="222.141" r="91.317" spreadMethod="pad" gradientTransform="matrix(0.93765, -0.004488, 0.004445, 0.92889, -118.195923, -170.46113)" xlink:href="#gradient-3" />
    <linearGradient id="gradient-3" bx:pinned="true">
      <stop offset="0" style="stop-color: rgb(183, 65, 14);" />
      <stop offset="1" style="stop-color: rgb(87, 42, 22);" />
    </linearGradient>
    <radialGradient id="gradient-3-0" gradientUnits="userSpaceOnUse" cx="227.638" cy="224.145" r="14.185" gradientTransform="matrix(6.024237, -0.067762, 0.06782, 6.029337, -1290.297607, -1299.295835)" xlink:href="#gradient-3" />
  </defs>
  <path d="M 9.628 65.482 L 9.628 8.026 L 62.296 8.026 L 62.296 16.644 L 18.327 16.644 L 18.327 32.365 L 53.678 32.365 L 53.678 41.143 L 18.327 41.143 L 18.327 65.482 Z" style="fill: url(#gradient-3-1); paint-order: fill; white-space: pre;" />
  <path d="M 89.499 65.482 L 89.499 65.482 L 89.499 16.644 L 65.08 16.644 L 65.08 8.026 L 122.536 8.026 L 122.536 16.644 L 98.197 16.644 L 98.197 65.482 Z" style="fill: url(#gradient-3-1); paint-order: fill; white-space: pre;" />
  <path d="M 128.516 65.482 L 128.516 8.106 L 175.518 8.106 Q 178.391 8.106 180.785 9.542 Q 183.179 10.979 184.575 13.333 Q 185.972 15.687 185.972 18.48 L 185.972 34.599 Q 185.972 37.472 184.575 39.826 Q 183.179 42.18 180.785 43.577 Q 178.391 44.973 175.518 44.973 L 137.134 45.053 L 137.134 65.482 Z M 139.129 36.275 L 175.278 36.275 Q 176.156 36.275 176.715 35.717 Q 177.273 35.158 177.273 34.36 L 177.273 18.719 Q 177.273 17.921 176.715 17.323 Q 176.156 16.724 175.278 16.724 L 139.129 16.724 Q 138.331 16.724 137.733 17.323 Q 137.134 17.921 137.134 18.719 L 137.134 34.36 Q 137.134 35.158 137.733 35.717 Q 138.331 36.275 139.129 36.275 Z" style="fill: url(#gradient-3-1); paint-order: fill; white-space: pre;" />
  <path d="M 41.449 65.213 Q 39.977 65.213 38.79 64.477 Q 37.604 63.741 36.868 62.554 Q 36.132 61.368 36.132 59.896 L 36.132 46.808 Q 36.132 45.336 36.868 44.149 Q 37.604 42.963 38.79 42.227 Q 39.977 41.491 41.449 41.491 L 54.946 41.491 Q 56.418 41.491 57.625 42.207 Q 58.831 42.922 59.547 44.149 Q 60.263 45.376 60.263 46.808 L 60.263 55.561 L 40.549 55.561 L 40.549 59.773 Q 40.549 60.182 40.856 60.489 Q 41.163 60.796 41.572 60.796 L 60.263 60.796 L 60.263 65.213 L 41.449 65.213 Z M 40.549 51.43 L 55.805 51.43 L 55.805 46.931 Q 55.805 46.522 55.519 46.215 Q 55.232 45.908 54.823 45.908 L 41.572 45.908 Q 41.163 45.908 40.856 46.215 Q 40.549 46.522 40.549 46.931 Z" style="fill: url(#gradient-3-0); paint-order: stroke; stroke-miterlimit: 3; white-space: pre;" />
</svg>